<mxfile host="app.diagrams.net" agent="Mozilla/5.0 (Windows NT 10.0; Win64; x64; rv:136.0) Gecko/20100101 Firefox/136.0" version="26.0.12">
  <diagram name="Page-1" id="1JltymOU_94CAYNyti2q">
    <mxGraphModel dx="1076" dy="583" grid="1" gridSize="10" guides="1" tooltips="1" connect="1" arrows="1" fold="1" page="1" pageScale="1" pageWidth="827" pageHeight="1169" math="0" shadow="0">
      <root>
        <mxCell id="0" />
        <mxCell id="1" parent="0" />
        <mxCell id="a0pdIB2whQw5H2ZO3lu2-11" value="Player 1" style="rounded=0;whiteSpace=wrap;html=1;" vertex="1" parent="1">
          <mxGeometry x="60" y="110" width="120" height="30" as="geometry" />
        </mxCell>
        <mxCell id="a0pdIB2whQw5H2ZO3lu2-12" value="" style="endArrow=none;dashed=1;html=1;rounded=0;" edge="1" parent="1">
          <mxGeometry width="50" height="50" relative="1" as="geometry">
            <mxPoint x="220" y="650" as="sourcePoint" />
            <mxPoint x="220" y="110" as="targetPoint" />
          </mxGeometry>
        </mxCell>
        <mxCell id="a0pdIB2whQw5H2ZO3lu2-19" style="edgeStyle=orthogonalEdgeStyle;rounded=0;orthogonalLoop=1;jettySize=auto;html=1;" edge="1" parent="1" source="a0pdIB2whQw5H2ZO3lu2-13">
          <mxGeometry relative="1" as="geometry">
            <mxPoint x="130" y="190" as="targetPoint" />
            <Array as="points">
              <mxPoint x="160" y="190" />
              <mxPoint x="160" y="190" />
            </Array>
          </mxGeometry>
        </mxCell>
        <mxCell id="a0pdIB2whQw5H2ZO3lu2-21" value="&lt;font style=&quot;font-size: 5px;&quot;&gt;RoomId, UserId, AllowedActions[]&lt;/font&gt;" style="edgeLabel;html=1;align=center;verticalAlign=middle;resizable=0;points=[];" vertex="1" connectable="0" parent="a0pdIB2whQw5H2ZO3lu2-19">
          <mxGeometry x="0.0253" relative="1" as="geometry">
            <mxPoint x="4" as="offset" />
          </mxGeometry>
        </mxCell>
        <mxCell id="a0pdIB2whQw5H2ZO3lu2-13" value="HandleCreateGameRoom" style="rounded=0;whiteSpace=wrap;html=1;" vertex="1" parent="1">
          <mxGeometry x="255" y="180" width="150" height="20" as="geometry" />
        </mxCell>
        <mxCell id="a0pdIB2whQw5H2ZO3lu2-14" value="Server" style="rounded=0;whiteSpace=wrap;html=1;" vertex="1" parent="1">
          <mxGeometry x="260" y="110" width="120" height="30" as="geometry" />
        </mxCell>
        <mxCell id="a0pdIB2whQw5H2ZO3lu2-15" value="Player 2" style="rounded=0;whiteSpace=wrap;html=1;" vertex="1" parent="1">
          <mxGeometry x="470" y="110" width="120" height="30" as="geometry" />
        </mxCell>
        <mxCell id="a0pdIB2whQw5H2ZO3lu2-16" value="" style="endArrow=none;dashed=1;html=1;rounded=0;" edge="1" parent="1">
          <mxGeometry width="50" height="50" relative="1" as="geometry">
            <mxPoint x="440" y="568.5714285714286" as="sourcePoint" />
            <mxPoint x="440" y="110" as="targetPoint" />
          </mxGeometry>
        </mxCell>
        <mxCell id="a0pdIB2whQw5H2ZO3lu2-18" style="edgeStyle=orthogonalEdgeStyle;rounded=0;orthogonalLoop=1;jettySize=auto;html=1;entryX=0.5;entryY=0;entryDx=0;entryDy=0;" edge="1" parent="1" source="a0pdIB2whQw5H2ZO3lu2-17" target="a0pdIB2whQw5H2ZO3lu2-13">
          <mxGeometry relative="1" as="geometry" />
        </mxCell>
        <mxCell id="a0pdIB2whQw5H2ZO3lu2-44" value="&lt;font style=&quot;font-size: 5px;&quot;&gt;UserName&lt;/font&gt;" style="edgeLabel;html=1;align=center;verticalAlign=middle;resizable=0;points=[];" vertex="1" connectable="0" parent="a0pdIB2whQw5H2ZO3lu2-18">
          <mxGeometry x="-0.2714" y="1" relative="1" as="geometry">
            <mxPoint as="offset" />
          </mxGeometry>
        </mxCell>
        <mxCell id="a0pdIB2whQw5H2ZO3lu2-17" value="&lt;font style=&quot;font-size: 10px;&quot;&gt;CreateGameRoom&lt;/font&gt;" style="rounded=0;whiteSpace=wrap;html=1;" vertex="1" parent="1">
          <mxGeometry x="70" y="150" width="100" height="20" as="geometry" />
        </mxCell>
        <mxCell id="a0pdIB2whQw5H2ZO3lu2-20" value="JoinGameRoom" style="rounded=0;whiteSpace=wrap;html=1;" vertex="1" parent="1">
          <mxGeometry x="480" y="210" width="100" height="20" as="geometry" />
        </mxCell>
        <mxCell id="a0pdIB2whQw5H2ZO3lu2-26" style="edgeStyle=orthogonalEdgeStyle;rounded=0;orthogonalLoop=1;jettySize=auto;html=1;" edge="1" parent="1" source="a0pdIB2whQw5H2ZO3lu2-23">
          <mxGeometry relative="1" as="geometry">
            <mxPoint x="540" y="240" as="targetPoint" />
          </mxGeometry>
        </mxCell>
        <mxCell id="a0pdIB2whQw5H2ZO3lu2-28" value="&lt;font style=&quot;font-size: 5px;&quot;&gt;UserId, PlayerList, AllowedActions[]&lt;/font&gt;" style="edgeLabel;html=1;align=center;verticalAlign=middle;resizable=0;points=[];" vertex="1" connectable="0" parent="a0pdIB2whQw5H2ZO3lu2-26">
          <mxGeometry x="-0.3082" y="2" relative="1" as="geometry">
            <mxPoint x="8" y="2" as="offset" />
          </mxGeometry>
        </mxCell>
        <mxCell id="a0pdIB2whQw5H2ZO3lu2-29" style="edgeStyle=orthogonalEdgeStyle;rounded=0;orthogonalLoop=1;jettySize=auto;html=1;" edge="1" parent="1" source="a0pdIB2whQw5H2ZO3lu2-23">
          <mxGeometry relative="1" as="geometry">
            <mxPoint x="130" y="240" as="targetPoint" />
          </mxGeometry>
        </mxCell>
        <mxCell id="a0pdIB2whQw5H2ZO3lu2-31" value="&lt;font style=&quot;font-size: 5px;&quot;&gt;Event=NewPlayer, Player&lt;/font&gt;, &lt;font style=&quot;font-size: 5px;&quot;&gt;AllowedActions[]&lt;/font&gt;" style="edgeLabel;html=1;align=center;verticalAlign=middle;resizable=0;points=[];" vertex="1" connectable="0" parent="a0pdIB2whQw5H2ZO3lu2-29">
          <mxGeometry x="0.025" y="-1" relative="1" as="geometry">
            <mxPoint y="1" as="offset" />
          </mxGeometry>
        </mxCell>
        <mxCell id="a0pdIB2whQw5H2ZO3lu2-23" value="HandleCreateGameRoom" style="rounded=0;whiteSpace=wrap;html=1;" vertex="1" parent="1">
          <mxGeometry x="255" y="230" width="150" height="20" as="geometry" />
        </mxCell>
        <mxCell id="a0pdIB2whQw5H2ZO3lu2-27" style="edgeStyle=orthogonalEdgeStyle;rounded=0;orthogonalLoop=1;jettySize=auto;html=1;entryX=0.575;entryY=-0.039;entryDx=0;entryDy=0;entryPerimeter=0;" edge="1" parent="1" source="a0pdIB2whQw5H2ZO3lu2-20" target="a0pdIB2whQw5H2ZO3lu2-23">
          <mxGeometry relative="1" as="geometry">
            <Array as="points">
              <mxPoint x="341" y="220" />
            </Array>
          </mxGeometry>
        </mxCell>
        <mxCell id="a0pdIB2whQw5H2ZO3lu2-45" value="&lt;font style=&quot;font-size: 5px;&quot;&gt;UserName&lt;/font&gt;" style="edgeLabel;html=1;align=center;verticalAlign=middle;resizable=0;points=[];" vertex="1" connectable="0" parent="a0pdIB2whQw5H2ZO3lu2-27">
          <mxGeometry x="-0.2255" y="-2" relative="1" as="geometry">
            <mxPoint as="offset" />
          </mxGeometry>
        </mxCell>
        <mxCell id="a0pdIB2whQw5H2ZO3lu2-35" style="edgeStyle=orthogonalEdgeStyle;rounded=0;orthogonalLoop=1;jettySize=auto;html=1;entryX=0.5;entryY=0;entryDx=0;entryDy=0;" edge="1" parent="1" source="a0pdIB2whQw5H2ZO3lu2-32" target="a0pdIB2whQw5H2ZO3lu2-36">
          <mxGeometry relative="1" as="geometry">
            <mxPoint x="310" y="290" as="targetPoint" />
            <Array as="points">
              <mxPoint x="330" y="290" />
            </Array>
          </mxGeometry>
        </mxCell>
        <mxCell id="a0pdIB2whQw5H2ZO3lu2-32" value="StartGame" style="rounded=0;whiteSpace=wrap;html=1;" vertex="1" parent="1">
          <mxGeometry x="70" y="280" width="100" height="20" as="geometry" />
        </mxCell>
        <mxCell id="a0pdIB2whQw5H2ZO3lu2-38" value="" style="edgeStyle=orthogonalEdgeStyle;rounded=0;orthogonalLoop=1;jettySize=auto;html=1;" edge="1" parent="1" source="a0pdIB2whQw5H2ZO3lu2-36" target="a0pdIB2whQw5H2ZO3lu2-37">
          <mxGeometry relative="1" as="geometry" />
        </mxCell>
        <mxCell id="a0pdIB2whQw5H2ZO3lu2-36" value="HandleStartGame" style="rounded=0;whiteSpace=wrap;html=1;" vertex="1" parent="1">
          <mxGeometry x="255" y="300" width="150" height="20" as="geometry" />
        </mxCell>
        <mxCell id="a0pdIB2whQw5H2ZO3lu2-39" style="edgeStyle=orthogonalEdgeStyle;rounded=0;orthogonalLoop=1;jettySize=auto;html=1;" edge="1" parent="1" source="a0pdIB2whQw5H2ZO3lu2-37">
          <mxGeometry relative="1" as="geometry">
            <mxPoint x="130" y="340" as="targetPoint" />
          </mxGeometry>
        </mxCell>
        <mxCell id="a0pdIB2whQw5H2ZO3lu2-40" value="&lt;font style=&quot;font-size: 5px;&quot;&gt;AllowedActions[]&lt;/font&gt;" style="edgeLabel;html=1;align=center;verticalAlign=middle;resizable=0;points=[];" vertex="1" connectable="0" parent="a0pdIB2whQw5H2ZO3lu2-39">
          <mxGeometry x="0.0182" y="-1" relative="1" as="geometry">
            <mxPoint as="offset" />
          </mxGeometry>
        </mxCell>
        <mxCell id="a0pdIB2whQw5H2ZO3lu2-37" value="&lt;font style=&quot;font-size: 5px;&quot;&gt;Choose a random player to start&lt;/font&gt;" style="rounded=0;whiteSpace=wrap;html=1;" vertex="1" parent="1">
          <mxGeometry x="290" y="330" width="80" height="20" as="geometry" />
        </mxCell>
        <mxCell id="a0pdIB2whQw5H2ZO3lu2-41" style="edgeStyle=orthogonalEdgeStyle;rounded=0;orthogonalLoop=1;jettySize=auto;html=1;exitX=1;exitY=0.5;exitDx=0;exitDy=0;" edge="1" parent="1" source="a0pdIB2whQw5H2ZO3lu2-37">
          <mxGeometry relative="1" as="geometry">
            <mxPoint x="520" y="340" as="targetPoint" />
            <mxPoint x="600" y="350" as="sourcePoint" />
          </mxGeometry>
        </mxCell>
        <mxCell id="a0pdIB2whQw5H2ZO3lu2-42" value="&lt;font style=&quot;font-size: 5px;&quot;&gt;AllowedActions[]&lt;/font&gt;" style="edgeLabel;html=1;align=center;verticalAlign=middle;resizable=0;points=[];" vertex="1" connectable="0" parent="a0pdIB2whQw5H2ZO3lu2-41">
          <mxGeometry x="0.0182" y="-1" relative="1" as="geometry">
            <mxPoint as="offset" />
          </mxGeometry>
        </mxCell>
        <mxCell id="a0pdIB2whQw5H2ZO3lu2-46" style="edgeStyle=orthogonalEdgeStyle;rounded=0;orthogonalLoop=1;jettySize=auto;html=1;entryX=0.5;entryY=0;entryDx=0;entryDy=0;" edge="1" parent="1" source="a0pdIB2whQw5H2ZO3lu2-43" target="a0pdIB2whQw5H2ZO3lu2-47">
          <mxGeometry relative="1" as="geometry">
            <mxPoint x="400" y="380" as="targetPoint" />
            <Array as="points">
              <mxPoint x="444" y="370" />
              <mxPoint x="444" y="360" />
              <mxPoint x="330" y="360" />
            </Array>
          </mxGeometry>
        </mxCell>
        <mxCell id="a0pdIB2whQw5H2ZO3lu2-43" value="RollDice" style="rounded=0;whiteSpace=wrap;html=1;" vertex="1" parent="1">
          <mxGeometry x="500" y="360" width="100" height="20" as="geometry" />
        </mxCell>
        <mxCell id="a0pdIB2whQw5H2ZO3lu2-48" style="edgeStyle=orthogonalEdgeStyle;rounded=0;orthogonalLoop=1;jettySize=auto;html=1;" edge="1" parent="1" source="a0pdIB2whQw5H2ZO3lu2-47">
          <mxGeometry relative="1" as="geometry">
            <mxPoint x="550" y="400" as="targetPoint" />
            <Array as="points">
              <mxPoint x="330" y="400" />
            </Array>
          </mxGeometry>
        </mxCell>
        <mxCell id="a0pdIB2whQw5H2ZO3lu2-49" value="&lt;font style=&quot;font-size: 5px;&quot;&gt;Event=DiceResult, DiceResult {diceResult, new Player position}, AllowedActions&lt;/font&gt;" style="edgeLabel;html=1;align=center;verticalAlign=middle;resizable=0;points=[];" vertex="1" connectable="0" parent="a0pdIB2whQw5H2ZO3lu2-48">
          <mxGeometry x="0.0069" y="-1" relative="1" as="geometry">
            <mxPoint as="offset" />
          </mxGeometry>
        </mxCell>
        <mxCell id="a0pdIB2whQw5H2ZO3lu2-56" style="edgeStyle=orthogonalEdgeStyle;rounded=0;orthogonalLoop=1;jettySize=auto;html=1;" edge="1" parent="1" source="a0pdIB2whQw5H2ZO3lu2-47">
          <mxGeometry relative="1" as="geometry">
            <mxPoint x="130" y="380" as="targetPoint" />
          </mxGeometry>
        </mxCell>
        <mxCell id="a0pdIB2whQw5H2ZO3lu2-57" value="&lt;font style=&quot;font-size: 5px;&quot;&gt;Event=DiceResult, DiceResult {diceResult, new Player position}, AllowedActions&lt;/font&gt;" style="edgeLabel;html=1;align=center;verticalAlign=middle;resizable=0;points=[];" vertex="1" connectable="0" parent="a0pdIB2whQw5H2ZO3lu2-56">
          <mxGeometry x="-0.2133" y="1" relative="1" as="geometry">
            <mxPoint x="-46" y="-1" as="offset" />
          </mxGeometry>
        </mxCell>
        <mxCell id="a0pdIB2whQw5H2ZO3lu2-47" value="HandleDiceRoll" style="rounded=0;whiteSpace=wrap;html=1;" vertex="1" parent="1">
          <mxGeometry x="272.5" y="370" width="115" height="20" as="geometry" />
        </mxCell>
        <mxCell id="a0pdIB2whQw5H2ZO3lu2-51" style="edgeStyle=orthogonalEdgeStyle;rounded=0;orthogonalLoop=1;jettySize=auto;html=1;" edge="1" parent="1" source="a0pdIB2whQw5H2ZO3lu2-50">
          <mxGeometry relative="1" as="geometry">
            <mxPoint x="390" y="440" as="targetPoint" />
          </mxGeometry>
        </mxCell>
        <mxCell id="a0pdIB2whQw5H2ZO3lu2-50" value="BuyProperty" style="rounded=0;whiteSpace=wrap;html=1;" vertex="1" parent="1">
          <mxGeometry x="500" y="430" width="100" height="20" as="geometry" />
        </mxCell>
        <mxCell id="a0pdIB2whQw5H2ZO3lu2-55" value="HandleBuyProperty" style="rounded=0;whiteSpace=wrap;html=1;" vertex="1" parent="1">
          <mxGeometry x="272.5" y="430" width="115" height="20" as="geometry" />
        </mxCell>
        <mxCell id="a0pdIB2whQw5H2ZO3lu2-58" value="&lt;font style=&quot;font-size: 5px;&quot;&gt;check which property he wants to buy based on the position&lt;/font&gt;" style="rounded=0;whiteSpace=wrap;html=1;" vertex="1" parent="1">
          <mxGeometry x="290" y="480" width="80" height="30" as="geometry" />
        </mxCell>
        <mxCell id="a0pdIB2whQw5H2ZO3lu2-59" value="&lt;font style=&quot;font-size: 5px;&quot;&gt;check if he can do this command&lt;/font&gt;" style="rounded=0;whiteSpace=wrap;html=1;" vertex="1" parent="1">
          <mxGeometry x="290" y="450" width="80" height="30" as="geometry" />
        </mxCell>
        <mxCell id="a0pdIB2whQw5H2ZO3lu2-62" style="edgeStyle=orthogonalEdgeStyle;rounded=0;orthogonalLoop=1;jettySize=auto;html=1;" edge="1" parent="1" source="a0pdIB2whQw5H2ZO3lu2-61">
          <mxGeometry relative="1" as="geometry">
            <mxPoint x="140" y="525" as="targetPoint" />
          </mxGeometry>
        </mxCell>
        <mxCell id="a0pdIB2whQw5H2ZO3lu2-64" style="edgeStyle=orthogonalEdgeStyle;rounded=0;orthogonalLoop=1;jettySize=auto;html=1;" edge="1" parent="1" source="a0pdIB2whQw5H2ZO3lu2-61">
          <mxGeometry relative="1" as="geometry">
            <mxPoint x="560" y="525" as="targetPoint" />
          </mxGeometry>
        </mxCell>
        <mxCell id="a0pdIB2whQw5H2ZO3lu2-65" value="&lt;font style=&quot;font-size: 5px;&quot;&gt;New property, Allowed Actions&lt;/font&gt;" style="edgeLabel;html=1;align=center;verticalAlign=middle;resizable=0;points=[];" vertex="1" connectable="0" parent="a0pdIB2whQw5H2ZO3lu2-64">
          <mxGeometry x="-0.0367" relative="1" as="geometry">
            <mxPoint as="offset" />
          </mxGeometry>
        </mxCell>
        <mxCell id="a0pdIB2whQw5H2ZO3lu2-61" value="&lt;font style=&quot;font-size: 5px;&quot;&gt;deduct money&lt;/font&gt;" style="rounded=0;whiteSpace=wrap;html=1;" vertex="1" parent="1">
          <mxGeometry x="290" y="510" width="80" height="30" as="geometry" />
        </mxCell>
      </root>
    </mxGraphModel>
  </diagram>
</mxfile>
